<svg class="thumb" width="1000" height="1000" viewBox="0,0,600,600" xmlns="http://www.w3.org/2000/svg" xmlns:inkscape="http://www.inkscape.org/namespaces/inkscape" xmlns:sodipodi="http://sodipodi.sourceforge.net/DTD/sodipodi-0.dtd" xmlns:xlink="http://www.w3.org/1999/xlink" xmlns:ns1="http://www.inkscape.org/namespaces/inkscape" xmlns:sketch="http://www.bohemiancoding.com/sketch/ns">
  <defs></defs>
  <g transform="matrix(1.686,0,0,1.686,-82.4524,28.7225)">
    <g transform="matrix(2.7086,-1.5638,1.6512,2.86,44.8975,143.0858)">
      <svg width="92.519" height="52.741" viewBox="3.7409999999999997,23.629999999999995,92.519,52.741">
        <defs>
          <linearGradient x1="0" y1="0.5" x2="1" y2="0.5" id="linearGradientSkbwcqxrz4">
            <stop offset="5.92%" stop-color="#030203"></stop>
            <stop offset="25.59%" stop-color="#0088ff"></stop>
            <stop offset="75.59%" stop-color="#000000"></stop>
            <stop offset="96.68%" stop-color="#0088ff"></stop>
            <stop offset="100%" stop-color="#ffffff"></stop>
          </linearGradient>
        </defs>
        <g></g>
        <g></g>
        <g></g>
        <g></g>
        <g></g>
        <g></g>
        <g></g>
        <g></g>
        <g></g>
        <g></g>
        <g></g>
        <g>
          <path d="M78.921,28.631H54.245L50,35.983l-4.246-7.353H21.079L8.741,50l12.338,21.37h24.676L50,64.018l4.245,7.353h24.676L91.26,50  L78.921,28.631z M86.929,48.5H67.45l-9.741-16.869h19.479L86.929,48.5z M22.812,31.63h19.48l-9.74,16.87h-19.48L22.812,31.63z   M13.071,51.5h19.48l9.74,16.87h-19.48L13.071,51.5z M44.889,66.869L35.149,50l9.74-16.869l3.379,5.853L41.908,50l6.36,11.017  L44.889,66.869z M50,41.983L54.629,50L50,58.017L45.372,50L50,41.983z M58.094,50l-6.361-11.017l3.379-5.852L64.852,50l-9.74,16.87  l-3.379-5.853L58.094,50z M77.188,68.37H57.709L67.45,51.5h19.479L77.188,68.37z" stroke="none" fill="url('#linearGradientSkbwcqxrz4')" style=""></path>
        </g>
      </svg>
    </g>
    <g transform="matrix(0.3993,-0.2305,0.2616,0.453,166.0571,239.5264)">
      <svg width="451.1" height="235" style="overflow: visible;">
        <defs>
          <linearGradient x1="0" y1="0.5" x2="1" y2="0.5" id="linearGradientSkbwcqxrzf">
            <stop offset="37.44%" stop-color="#000000"></stop>
            <stop offset="40.05%" stop-color="#0088ff"></stop>
            <stop offset="47.63%" stop-color="#030203"></stop>
            <stop offset="95.97%" stop-color="#030203"></stop>
            <stop offset="100%" stop-color="#030203"></stop>
          </linearGradient>
        </defs>
        <g transform="matrix(1,0,0,1,0,131.25)">
          <path d="M 23.199999999999992 0.5Q 19.499999999999993 0.5  17.89999999999999-1.15Q 16.299999999999994-2.8  16.299999999999994-7.4L 16.299999999999994-7.4Q 16.299999999999994-10.5  16.949999999999992-15.35Q 17.599999999999994-20.2  19.099999999999994-28.7L 19.099999999999994-28.7Q 21.699999999999992-44.4  23.199999999999992-55.9L 23.199999999999992-55.9Q 24.099999999999994-63.1  24.099999999999994-67.9L 24.099999999999994-67.9Q 24.099999999999994-72.4  20.799999999999994-72.4L 20.799999999999994-72.4Q 18.199999999999992-72.4  14.549999999999994-69.75Q 10.899999999999993-67.1  6.499999999999993-61.3L 6.499999999999993-61.3Q 5.0999999999999925-59.4  3.399999999999993-59.4L 3.399999999999993-59.4Q 1.999999999999993-59.4  0.9499999999999929-60.75Q-0.10000000000000711-62.1-0.10000000000000711-63.8L-0.10000000000000711-63.8Q-0.10000000000000711-65.4  0.5499999999999929-67.05Q 1.1999999999999929-68.7  2.699999999999993-70.8L 2.699999999999993-70.8Q 7.499999999999993-77.5  13.399999999999993-81.15Q 19.299999999999994-84.8  25.199999999999992-84.8L 25.199999999999992-84.8Q 30.699999999999992-84.8  33.64999999999999-81.3Q 36.599999999999994-77.8  36.599999999999994-71.1L 36.599999999999994-71.1Q 36.599999999999994-68.4  36.099999999999994-64.75Q 35.599999999999994-61.1  35.199999999999996-58.8Q 34.79999999999999-56.5  34.599999999999994-55.6L 34.599999999999994-55.6Q 40.29999999999999-71.9  47.39999999999999-78.35Q 54.49999999999999-84.8  62.99999999999999-84.8L 62.99999999999999-84.8Q 69.5-84.8  73.25-80.2Q 77-75.6  77-67.2L 77-67.2Q 77-63.9  76.1-59L 76.1-59Q 81.1-72.8  87.79999999999998-78.8Q 94.5-84.8  103.19999999999999-84.8L 103.19999999999999-84.8Q 110.19999999999999-84.8  113.94999999999999-80.3Q 117.69999999999999-75.8  117.69999999999999-67.7L 117.69999999999999-67.7Q 117.69999999999999-63.3  116.4-57L 116.4-57L 110.29999999999998-28.4Q 109.29999999999998-23.4  109.29999999999998-19.8L 109.29999999999998-19.8Q 109.29999999999998-15.6  111.25-13.5Q 113.19999999999999-11.4  116.69999999999999-11.4L 116.69999999999999-11.4Q 120-11.4  123.15-13.6Q 126.29999999999998-15.8  130.6-20.9L 130.6-20.9Q 131.8-22.3  133.3-22.3L 133.3-22.3Q 134.6-22.3  135.35-21.1Q 136.1-19.9  136.1-17.8L 136.1-17.8Q 136.1-13.9  134.2-11.6L 134.2-11.6Q 129-5.3  123.9-2.4Q 118.79999999999998 0.5  113.19999999999999 0.5L 113.19999999999999 0.5Q 104.69999999999999 0.5  99.9-4.55Q 95.1-9.6  95.1-18.1L 95.1-18.1Q 95.1-24  97.5-35.2L 97.5-35.2L 101.5-53.5Q 101.69999999999999-54.4  102.19999999999999-56.7Q 102.69999999999999-59  103-61.05Q 103.29999999999998-63.1  103.29999999999998-65.1L 103.29999999999998-65.1Q 103.29999999999998-68.6  101.94999999999999-70.35Q 100.6-72.1  98.1-72.1L 98.1-72.1Q 93.4-72.1  88.25-66.05Q 83.1-60  78.44999999999999-46Q 73.79999999999998-32  70.9-9.6L 70.9-9.6Q 70.19999999999999-3.6  68.44999999999999-1.55Q 66.69999999999999 0.5  62.79999999999999 0.5L 62.79999999999999 0.5Q 59.39999999999999 0.5  57.849999999999994-1.1Q 56.29999999999999-2.7  56.29999999999999-7.1L 56.29999999999999-7.1Q 56.29999999999999-11.2  57.39999999999999-17.85Q 58.49999999999999-24.5  60.199999999999996-33.5L 60.199999999999996-33.5Q 64.79999999999998-57.7  64.79999999999998-64.7L 64.79999999999998-64.7Q 64.79999999999998-68.5  63.349999999999994-70.3Q 61.89999999999999-72.1  58.99999999999999-72.1L 58.99999999999999-72.1Q 54.099999999999994-72.1  48.89999999999999-66.55Q 43.699999999999996-61  38.74999999999999-46.85Q 33.79999999999999-32.7  30.499999999999993-8.6L 30.499999999999993-8.6Q 29.799999999999994-3.5  28.449999999999992-1.5Q 27.099999999999994 0.5  23.199999999999992 0.5L 23.199999999999992 0.5ZM 135.1 0.5Q 131.29999999999998 0.5  129.75-3.5Q 128.2-7.5  128.2-16.3L 128.2-16.3Q 128.2-29.3  131.89999999999998-41L 131.89999999999998-41Q 132.79999999999998-43.9  134.85-45.25Q 136.89999999999998-46.6  140.6-46.6L 140.6-46.6Q 142.6-46.6  143.39999999999998-46.1Q 144.2-45.6  144.2-44.2L 144.2-44.2Q 144.2-42.6  142.7-37L 142.7-37Q 141.7-33  141.1-30Q 140.5-27  140.1-22.6L 140.1-22.6Q 143.39999999999998-31.2  147.5-36.6Q 151.6-42  155.54999999999998-44.3Q 159.5-46.6  162.79999999999998-46.6L 162.79999999999998-46.6Q 169.29999999999998-46.6  169.29999999999998-40.1L 169.29999999999998-40.1Q 169.29999999999998-38.8  168.39999999999998-33.8L 168.39999999999998-33.8Q 167.6-29.8  167.6-28.8L 167.6-28.8Q 167.6-25.3  170.1-25.3L 170.1-25.3Q 172.89999999999998-25.3  177.29999999999998-29.7L 177.29999999999998-29.7Q 178.6-31  180-31L 180-31Q 181.29999999999998-31  182.04999999999998-29.85Q 182.79999999999998-28.7  182.79999999999998-26.8L 182.79999999999998-26.8Q 182.79999999999998-23.1  180.79999999999998-21L 180.79999999999998-21Q 178-18.1  174.25-16.05Q 170.5-14  166.29999999999998-14L 166.29999999999998-14Q 161-14  158.25-16.7Q 155.5-19.4  155.5-24L 155.5-24Q 155.5-25.5  155.79999999999998-27L 155.79999999999998-27Q 156-29  156-29.7L 156-29.7Q 156-31.3  154.89999999999998-31.3L 154.89999999999998-31.3Q 153.39999999999998-31.3  150.95-27.95Q 148.5-24.6  146.1-19.1Q 143.7-13.6  142.2-7.5L 142.2-7.5Q 141.1-2.8  139.64999999999998-1.15Q 138.2 0.5  135.1 0.5L 135.1 0.5ZM 187.4 0.5Q 183.00000000000003 0.5  180.75000000000003-1.9Q 178.50000000000003-4.3  178.50000000000003-8.2L 178.50000000000003-8.2Q 178.50000000000003-12.7  181.05-15.4Q 183.60000000000002-18.1  188.20000000000002-18.1L 188.20000000000002-18.1Q 192.60000000000002-18.1  194.85000000000002-15.95Q 197.10000000000002-13.8  197.10000000000002-9.6L 197.10000000000002-9.6Q 197.10000000000002-5  194.50000000000003-2.25Q 191.9 0.5  187.4 0.5L 187.4 0.5ZM 288.20000000000005-64Q 288.20000000000005-55.5  282.20000000000005-49.35Q 276.20000000000005-43.2  264.70000000000005-40.5L 264.70000000000005-40.5Q 270.90000000000003-38.8  274.1-34.95Q 277.30000000000007-31.1  277.30000000000007-26.1L 277.30000000000007-26.1Q 277.30000000000007-18.2  272.35-12.4Q 267.40000000000003-6.6  257.90000000000003-3.45Q 248.40000000000003-0.3  235.00000000000003-0.3L 235.00000000000003-0.3Q 230.00000000000003-0.3  227.00000000000003-0.6L 227.00000000000003-0.6Q 226.90000000000003 2.2  224.60000000000002 3.6Q 222.30000000000004 5  218.70000000000005 5L 218.70000000000005 5Q 215.10000000000002 5  213.75000000000003 3.4Q 212.40000000000003 1.8  212.60000000000002-1.3L 212.60000000000002-1.3Q 213.50000000000003-15.3  216.10000000000002-30.65Q 218.70000000000005-46  222.70000000000005-60.3L 222.70000000000005-60.3Q 223.40000000000003-62.8  225.50000000000003-63.8Q 227.60000000000002-64.8  231.00000000000003-64.8L 231.00000000000003-64.8Q 237.10000000000002-64.8  237.10000000000002-61.4L 237.10000000000002-61.4Q 237.10000000000002-60  236.50000000000003-58.2L 236.50000000000003-58.2Q 233.90000000000003-50.4  231.30000000000004-37.05Q 228.70000000000005-23.7  227.60000000000002-11.6L 227.60000000000002-11.6Q 232.40000000000003-11.2  235.40000000000003-11.2L 235.40000000000003-11.2Q 249.40000000000003-11.2  255.95000000000005-15.25Q 262.50000000000006-19.3  262.50000000000006-25.6L 262.50000000000006-25.6Q 262.50000000000006-30  258.75000000000006-33Q 255.00000000000003-36  246.20000000000005-36.3L 246.20000000000005-36.3Q 244.20000000000005-36.4  243.40000000000003-37.3Q 242.60000000000002-38.2  242.60000000000002-40.2L 242.60000000000002-40.2Q 242.60000000000002-43.1  243.80000000000004-44.9Q 245.00000000000003-46.7  248.20000000000005-46.8L 248.20000000000005-46.8Q 255.30000000000004-47  261.05-48.9Q 266.80000000000007-50.8  270.1-54.25Q 273.40000000000003-57.7  273.40000000000003-62.3L 273.40000000000003-62.3Q 273.40000000000003-68.1  267.70000000000005-71.45Q 262.00000000000006-74.8  250.20000000000005-74.8L 250.20000000000005-74.8Q 239.50000000000003-74.8  229.50000000000003-72.05Q 219.50000000000003-69.3  212.50000000000003-65.1L 212.50000000000003-65.1Q 209.30000000000004-63.2  207.10000000000002-63.2L 207.10000000000002-63.2Q 205.30000000000004-63.2  204.35000000000002-64.45Q 203.40000000000003-65.7  203.40000000000003-67.6L 203.40000000000003-67.6Q 203.40000000000003-70.1  204.45000000000005-71.9Q 205.50000000000003-73.7  209.50000000000003-76L 209.50000000000003-76Q 217.90000000000003-80.8  229.20000000000005-83.5Q 240.50000000000003-86.2  252.30000000000004-86.2L 252.30000000000004-86.2Q 270.40000000000003-86.2  279.30000000000007-80.1Q 288.20000000000005-74  288.20000000000005-64L 288.20000000000005-64ZM 326.8-22.3Q 328.1-22.3  328.85-21.1Q 329.6-19.9  329.6-17.8L 329.6-17.8Q 329.6-13.8  327.70000000000005-11.6L 327.70000000000005-11.6Q 323.40000000000003-6.3  318.35-2.9Q 313.3 0.5  306.90000000000003 0.5L 306.90000000000003 0.5Q 298.1 0.5  293.85-7.5Q 289.6-15.5  289.6-28.2L 289.6-28.2Q 289.6-40.4  292.75-56Q 295.90000000000003-71.6  302.05-82.8Q 308.20000000000005-94  316.70000000000005-94L 316.70000000000005-94Q 321.5-94  324.25-89.55Q 327-85.1  327-76.8L 327-76.8Q 327-64.9  320.40000000000003-49.2Q 313.8-33.5  302.5-18.1L 302.5-18.1Q 303.20000000000005-14  304.8-12.25Q 306.40000000000003-10.5  309-10.5L 309-10.5Q 313.1-10.5  316.20000000000005-12.85Q 319.3-15.2  324.1-20.9L 324.1-20.9Q 325.3-22.3  326.8-22.3L 326.8-22.3ZM 314.5-84.1Q 312.20000000000005-84.1  309.3-75.8Q 306.40000000000003-67.5  304.20000000000005-55.2Q 302-42.9  301.8-31.6L 301.8-31.6Q 308.90000000000003-43.3  313.1-55.05Q 317.3-66.8  317.3-76.5L 317.3-76.5Q 317.3-84.1  314.5-84.1L 314.5-84.1ZM 372.5-30.7Q 373.8-30.7  374.5-29.4Q 375.2-28.1  375.2-26.1L 375.2-26.1Q 375.2-21.3  372.3-20.4L 372.3-20.4Q 366.3-18.3  359.09999999999997-18L 359.09999999999997-18Q 357.2-9.6  351.59999999999997-4.55Q 346 0.5  338.9 0.5L 338.9 0.5Q 332.9 0.5  328.65-2.4Q 324.4-5.3  322.2-10.1Q 320-14.9  320-20.5L 320-20.5Q 320-28.1  322.9-34.05Q 325.8-40  330.9-43.35Q 336-46.7  342.2-46.7L 342.2-46.7Q 349.8-46.7  354.45-41.45Q 359.09999999999997-36.2  359.9-28.5L 359.9-28.5Q 364.59999999999997-28.8  371.09999999999997-30.5L 371.09999999999997-30.5Q 371.9-30.7  372.5-30.7L 372.5-30.7ZM 339.7-10.1Q 342.9-10.1  345.25-12.7Q 347.59999999999997-15.3  348.4-20.2L 348.4-20.2Q 345.3-22.3  343.65-25.7Q 342-29.1  342-32.9L 342-32.9Q 342-34.5  342.3-36.1L 342.3-36.1L 341.8-36.1Q 337.8-36.1  335.15-32.25Q 332.5-28.4  332.5-21.4L 332.5-21.4Q 332.5-15.9  334.65-13Q 336.8-10.1  339.7-10.1L 339.7-10.1ZM 385.7 0.5Q 375.90000000000003 0.5  370.45-5.05Q 365-10.6  365-19.7L 365-19.7Q 365-27.8  368.2-33.9Q 371.40000000000003-40  376.5-43.3Q 381.6-46.6  387.2-46.6L 387.2-46.6Q 392.7-46.6  395.75-43.35Q 398.8-40.1  398.8-35L 398.8-35Q 398.8-30.8  396.95-27.9Q 395.1-25  392.1-25L 392.1-25Q 390.2-25  389.05-25.9Q 387.90000000000003-26.8  387.90000000000003-28.4L 387.90000000000003-28.4Q 387.90000000000003-29.1  388.1-30Q 388.3-30.9  388.40000000000003-31.3L 388.40000000000003-31.3Q 388.90000000000003-32.8  388.90000000000003-34.1L 388.90000000000003-34.1Q 388.90000000000003-35.4  388.25-36.1Q 387.6-36.8  386.40000000000003-36.8L 386.40000000000003-36.8Q 384.1-36.8  382.1-34.75Q 380.1-32.7  378.90000000000003-29.2Q 377.7-25.7  377.7-21.5L 377.7-21.5Q 377.7-9.9  387.8-9.9L 387.8-9.9Q 391.90000000000003-9.9  396.65000000000003-12.65Q 401.40000000000003-15.4  406-20.9L 406-20.9Q 407.2-22.3  408.7-22.3L 408.7-22.3Q 410-22.3  410.75-21.1Q 411.5-19.9  411.5-17.8L 411.5-17.8Q 411.5-14  409.6-11.6L 409.6-11.6Q 404.90000000000003-5.8  398.35-2.65Q 391.8 0.5  385.7 0.5L 385.7 0.5ZM 461.2-22.3Q 462.49999999999994-22.3  463.25-21.1Q 464-19.9  464-17.8L 464-17.8Q 464-13.8  462.09999999999997-11.6L 462.09999999999997-11.6Q 457.59999999999997-6.1  452.99999999999994-2.8Q 448.4 0.5  442.09999999999997 0.5L 442.09999999999997 0.5Q 434.4 0.5  429.7-3.9Q 424.99999999999994-8.3  424.99999999999994-15.6L 424.99999999999994-15.6Q 424.99999999999994-19.5  428.99999999999994-21.2L 428.99999999999994-21.2Q 433.4-23.1  435.29999999999995-25.25Q 437.2-27.4  437.2-30.5L 437.2-30.5Q 437.2-32.3  436.45-33.2Q 435.7-34.1  434.59999999999997-34.1L 434.59999999999997-34.1Q 431.9-34.1  428.65-30.2Q 425.4-26.3  422.59999999999997-20.15Q 419.79999999999995-14  418.2-7.5L 418.2-7.5Q 417.09999999999997-2.8  415.65-1.15Q 414.2 0.5  411.09999999999997 0.5L 411.09999999999997 0.5Q 407.99999999999994 0.5  406.54999999999995-1.75Q 405.09999999999997-4  404.59999999999997-8.7Q 404.09999999999997-13.4  404.09999999999997-22.5L 404.09999999999997-22.5Q 404.09999999999997-37.9  407.24999999999994-54.6Q 410.4-71.3  416.54999999999995-82.65Q 422.7-94  431.29999999999995-94L 431.29999999999995-94Q 435.9-94  438.74999999999994-90.05Q 441.59999999999997-86.1  441.59999999999997-79.8L 441.59999999999997-79.8Q 441.59999999999997-69.7  435.7-58.85Q 429.79999999999995-48  416.49999999999994-33.5L 416.49999999999994-33.5Q 416.2-28.3  416.2-22.8L 416.2-22.8Q 420.99999999999994-35.3  427.2-40.95Q 433.4-46.6  438.79999999999995-46.6L 438.79999999999995-46.6Q 443.79999999999995-46.6  446.84999999999997-43.2Q 449.9-39.8  449.9-34.8L 449.9-34.8Q 449.9-29.3  447.09999999999997-24.7Q 444.29999999999995-20.1  437.49999999999994-16.5L 437.49999999999994-16.5Q 437.9-13.8  439.95-12.15Q 441.99999999999994-10.5  444.9-10.5L 444.9-10.5Q 447.99999999999994-10.5  450.9-12.9Q 453.79999999999995-15.3  458.49999999999994-20.9L 458.49999999999994-20.9Q 459.7-22.3  461.2-22.3L 461.2-22.3ZM 429.2-84.1Q 427.4-84.1  425.2-78.95Q 422.99999999999994-73.8  420.95-65.05Q 418.9-56.3  417.59999999999997-46L 417.59999999999997-46Q 423.79999999999995-53.3  427.84999999999997-61.9Q 431.9-70.5  431.9-77.5L 431.9-77.5Q 431.9-80.7  431.2-82.4Q 430.49999999999994-84.1  429.2-84.1L 429.2-84.1Z" data-textpath="Mr.Block" data-text-anchor="middle" data-font-size="100" data-letterspacing="0" data-side="left" data-offset="0.5" data-dx="0" data-dy="0" data-xmlspace="preserve" data-href="" data-font="Pacifico" data-font-src="/Content/clientfonts/pacifico.woff" data-font-scale="contain" transform="translate(0,0)" data-x="0" data-y="0" fill="url('#linearGradientSkbwcqxrzf')"></path>
        </g>
      </svg>
    </g>
  </g>
</svg>